<svg width="193" height="199" viewBox="0 0 193 199" fill="none" xmlns="http://www.w3.org/2000/svg">
<g clip-path="url(#clip0_3367_3278)">
<path d="M99.5757 97.5145V90.379L151.069 67.3077L192.833 90.379V97.5145H99.5757ZM99.5757 113.212V106.077H192.833V113.212H99.5757ZM99.5757 128.91V121.775H192.833V128.91H99.5757ZM99.1011 198.6C84.2306 198.6 70.7052 196.063 58.524 190.989C46.5011 185.756 36.1392 178.621 27.4384 169.583C18.7376 160.544 12.0142 150.079 7.26826 138.187C2.52236 126.136 0.149414 113.212 0.149414 99.4173C0.149414 85.622 2.52236 72.7782 7.26826 60.8858C12.0142 48.8348 18.7376 38.2902 27.4384 29.2519C36.1392 20.2137 46.5011 13.1575 58.524 8.08339C70.7052 2.85071 84.2306 0.234375 99.1011 0.234375C118.085 0.234375 134.854 4.43637 149.408 12.8404C163.962 21.0858 175.352 32.1061 183.578 45.9013L177.408 49.9447C169.815 37.1009 159.295 26.7941 145.848 19.0244C132.56 11.2547 116.977 7.36984 99.1011 7.36984C85.1798 7.36984 72.6035 9.74833 61.3716 14.5053C50.1396 19.2623 40.4896 25.8428 32.4216 34.2467C24.3535 42.6507 18.1048 52.4818 13.6753 63.74C9.40396 74.8396 7.26826 86.732 7.26826 99.4173C7.26826 112.103 9.40396 124.074 13.6753 135.332C18.1048 146.432 24.3535 156.184 32.4216 164.588C40.4896 172.992 50.1396 179.572 61.3716 184.329C72.6035 189.086 85.1798 191.465 99.1011 191.465C112.706 191.465 125.045 189.165 136.119 184.567C147.193 179.969 156.764 173.547 164.832 165.301C172.9 157.056 179.149 147.621 183.578 136.997H191.409C186.821 149.048 180.098 159.752 171.239 169.107C162.538 178.304 152.097 185.518 139.916 190.751C127.735 195.984 114.13 198.6 99.1011 198.6ZM99.1011 167.204C85.0216 167.204 72.9199 164.191 62.7954 158.166C52.6708 151.982 44.9191 143.736 39.5404 133.43C34.1617 123.123 31.4724 111.785 31.4724 99.4173C31.4724 86.8906 34.1617 75.5531 39.5404 65.4049C44.9191 55.0981 52.6708 46.932 62.7954 40.9065C72.9199 34.7224 85.0216 31.6304 99.1011 31.6304C112.706 31.6304 124.413 34.5639 134.221 40.4308C144.187 46.1392 151.86 53.7503 157.238 63.2643L151.069 67.3077C146.323 58.7451 139.52 51.9268 130.661 46.8527C121.802 41.62 111.282 39.0037 99.1011 39.0037C86.4454 39.0037 75.5302 41.7786 66.3548 47.3284C57.3376 52.7196 50.456 60.0137 45.7101 69.2105C40.9642 78.2487 38.5913 88.3177 38.5913 99.4173C38.5913 110.517 40.9642 120.665 45.7101 129.862C50.456 138.9 57.3376 146.194 66.3548 151.744C75.5302 157.135 86.4454 159.831 99.1011 159.831C110.017 159.831 119.588 157.769 127.814 153.647C136.04 149.365 142.605 143.816 147.509 136.997H156.527C150.99 146.194 143.317 153.567 133.509 159.117C123.701 164.508 112.231 167.204 99.1011 167.204ZM99.1011 182.902C86.4454 182.902 74.9765 180.761 64.6937 176.48C54.5691 172.04 45.7892 166.015 38.354 158.404C31.0769 150.793 25.4609 141.992 21.506 132.003C17.7093 121.854 15.8109 110.993 15.8109 99.4173C15.8109 87.842 17.7093 77.0595 21.506 67.0698C25.4609 56.9216 31.0769 48.042 38.354 40.4308C45.7892 32.6611 54.5691 26.6356 64.6937 22.3543C74.9765 18.073 86.4454 15.9324 99.1011 15.9324C115.395 15.9324 129.633 19.5001 141.814 26.6356C154.154 33.6125 163.724 42.8886 170.527 54.4639L164.357 58.5073C158.029 47.8834 149.329 39.4001 138.255 33.0575C127.181 26.5563 114.13 23.3057 99.1011 23.3057C83.5978 23.3057 70.0724 26.7149 58.524 33.5332C47.1339 40.3515 38.354 49.5483 32.1843 61.1236C26.0146 72.5404 22.9298 85.3049 22.9298 99.4173C22.9298 113.371 26.0146 126.136 32.1843 137.711C38.354 149.286 47.1339 158.483 58.524 165.301C70.0724 172.12 83.5978 175.529 99.1011 175.529C114.763 175.529 128.367 172.04 139.916 165.063C151.464 157.928 160.244 148.573 166.256 136.997H174.324C167.996 150.634 158.346 161.734 145.374 170.296C132.402 178.7 116.977 182.902 99.1011 182.902Z" fill="url(#paint0_linear_3367_3278)"/>
<path d="M161.36 70.5622C174.029 70.5622 184.299 60.2683 184.299 47.5702C184.299 34.872 174.029 24.5781 161.36 24.5781C148.692 24.5781 138.422 34.872 138.422 47.5702C138.422 60.2683 148.692 70.5622 161.36 70.5622Z" fill="url(#paint1_linear_3367_3278)"/>
</g>
<defs>
<linearGradient id="paint0_linear_3367_3278" x1="95.9103" y1="209.472" x2="91.7486" y2="0.219993" gradientUnits="userSpaceOnUse">
<stop stop-color="#007AFF"/>
<stop offset="1" stop-color="#0A0A0B"/>
</linearGradient>
<linearGradient id="paint1_linear_3367_3278" x1="161.222" y1="73.0824" x2="160.283" y2="24.5738" gradientUnits="userSpaceOnUse">
<stop stop-color="#0A0A0B"/>
<stop offset="1" stop-color="#007AFF"/>
</linearGradient>
<clipPath id="clip0_3367_3278">
<rect width="193" height="199" fill="white"/>
</clipPath>
</defs>
</svg>
