<svg width="179" height="28" viewBox="0 0 179 28" fill="none" xmlns="http://www.w3.org/2000/svg">
<path d="M12.9121 27.4395C5.33594 27.4395 0.695312 22.5 0.695312 14.2383V14.2207C0.695312 6.09961 5.35352 1.19531 12.7891 1.19531C18.8887 1.19531 23.0371 4.74609 23.8809 9.50977L23.9336 9.75586H18.6074L18.5371 9.58008C17.6934 7.11914 15.6719 5.69531 12.8066 5.69531C8.62305 5.69531 6.10938 8.78906 6.10938 14.168V14.1855C6.10938 19.6875 8.78125 22.9395 13 22.9395C16.4629 22.9395 18.8359 20.8828 18.9766 17.7539L18.9941 17.3848H13.1934V13.4297H24.1621V16.3477C24.1621 23.2559 19.9785 27.4395 12.9121 27.4395ZM35.8867 27.3867C30.1562 27.3867 26.5527 23.7129 26.5527 17.5781V17.543C26.5527 11.4785 30.2441 7.76953 35.8691 7.76953C41.5117 7.76953 45.2207 11.4434 45.2207 17.543V17.5781C45.2207 23.7305 41.582 27.3867 35.8867 27.3867ZM35.9043 23.3613C38.4004 23.3613 40 21.252 40 17.5781V17.543C40 13.9043 38.3652 11.7949 35.8691 11.7949C33.3906 11.7949 31.7734 13.9043 31.7734 17.543V17.5781C31.7734 21.2695 33.373 23.3613 35.9043 23.3613ZM56.5234 27.3867C50.793 27.3867 47.1895 23.7129 47.1895 17.5781V17.543C47.1895 11.4785 50.8809 7.76953 56.5059 7.76953C62.1484 7.76953 65.8574 11.4434 65.8574 17.543V17.5781C65.8574 23.7305 62.2188 27.3867 56.5234 27.3867ZM56.541 23.3613C59.0371 23.3613 60.6367 21.252 60.6367 17.5781V17.543C60.6367 13.9043 59.002 11.7949 56.5059 11.7949C54.0273 11.7949 52.4102 13.9043 52.4102 17.543V17.5781C52.4102 21.2695 54.0098 23.3613 56.541 23.3613ZM79.6738 27.3867C76.9668 27.3867 74.8926 26.0156 73.873 23.7832H73.7676V27H68.6348V1.63477H73.7676V11.4258H73.873C74.9102 9.14062 77.002 7.76953 79.6914 7.76953C84.4199 7.76953 87.3555 11.4258 87.3555 17.5605V17.5781C87.3555 23.6953 84.4199 27.3867 79.6738 27.3867ZM77.9688 23.1328C80.5176 23.1328 82.1348 21.0059 82.1348 17.5781V17.5605C82.1348 14.1152 80.5176 12.0234 77.9688 12.0234C75.4902 12.0234 73.7676 14.168 73.7676 17.5605V17.5781C73.7676 20.9883 75.4727 23.1328 77.9688 23.1328Z" fill="#007AFF"/>
<path d="M98.5703 27.3867C92.8047 27.3867 89.3066 23.6426 89.3066 17.6133V17.5957C89.3066 11.6016 92.8398 7.76953 98.3594 7.76953C103.879 7.76953 107.342 11.5137 107.342 17.209V18.791H94.3691C94.4219 21.7969 96.0566 23.5547 98.6758 23.5547C100.785 23.5547 102.068 22.3945 102.438 21.3398L102.473 21.2344H107.184L107.131 21.4277C106.551 24.2051 103.949 27.3867 98.5703 27.3867ZM98.4473 11.6016C96.3379 11.6016 94.7559 13.0078 94.4219 15.5566H102.42C102.104 12.9551 100.574 11.6016 98.4473 11.6016ZM110.119 27V1.63477H115.252V27H110.119ZM126.203 27.3867C122.02 27.3867 120.051 25.7695 120.051 21.7266V12.0234H117.432V8.15625H120.051V3.55078H125.236V8.15625H128.682V12.0234H125.236V21.1641C125.236 22.9219 126.027 23.5195 127.574 23.5195C128.031 23.5195 128.365 23.4668 128.682 23.4316V27.1934C128.102 27.2812 127.275 27.3867 126.203 27.3867ZM139.879 27.3867C134.148 27.3867 130.545 23.7129 130.545 17.5781V17.543C130.545 11.4785 134.236 7.76953 139.861 7.76953C145.504 7.76953 149.213 11.4434 149.213 17.543V17.5781C149.213 23.7305 145.574 27.3867 139.879 27.3867ZM139.896 23.3613C142.393 23.3613 143.992 21.252 143.992 17.5781V17.543C143.992 13.9043 142.357 11.7949 139.861 11.7949C137.383 11.7949 135.766 13.9043 135.766 17.543V17.5781C135.766 21.2695 137.365 23.3613 139.896 23.3613ZM154.539 5.73047C152.992 5.73047 151.797 4.51758 151.797 3.05859C151.797 1.59961 152.992 0.386719 154.539 0.386719C156.086 0.386719 157.281 1.59961 157.281 3.05859C157.281 4.51758 156.086 5.73047 154.539 5.73047ZM151.973 27V8.15625H157.105V27H151.973ZM160.551 27V8.15625H165.684V11.25H165.789C166.756 9.08789 168.689 7.76953 171.537 7.76953C175.686 7.76953 178.041 10.4238 178.041 14.8359V27H172.908V15.8906C172.908 13.4297 171.748 12.0234 169.445 12.0234C167.143 12.0234 165.684 13.7109 165.684 16.1719V27H160.551Z" fill="#2C2C2E"/>
</svg>
